<svg xmlns="http://www.w3.org/2000/svg" xmlns:xlink="http://www.w3.org/1999/xlink" id="d5877239-1383-4003-a1e0-bdbc61205e57" width="796" height="684" data-name="Layer 1" viewBox="0 0 796 684"><defs><linearGradient id="4825a168-f1ac-4091-8125-48717fd16bcb" x1="398" x2="398" y1="684" gradientUnits="userSpaceOnUse"><stop offset=".01" stop-color="gray" stop-opacity=".25"/><stop offset=".54" stop-color="gray" stop-opacity=".12"/><stop offset="1" stop-color="gray" stop-opacity=".1"/></linearGradient><linearGradient id="cf06029e-a620-46ae-8a5a-e28a71109481" x1="193" x2="193" y1="420.5" y2="262" gradientUnits="userSpaceOnUse"><stop offset="0" stop-color="#b3b3b3" stop-opacity=".25"/><stop offset=".54" stop-color="#b3b3b3" stop-opacity=".12"/><stop offset="1" stop-color="#b3b3b3" stop-opacity=".1"/></linearGradient><linearGradient id="f75d8251-2390-4c7d-bebb-e5abb3a9a322" x1="395.5" x2="395.5" y2="262" xlink:href="#cf06029e-a620-46ae-8a5a-e28a71109481"/><linearGradient id="86b5c316-e7be-414e-8e69-87fdc1a5b05b" x1="598.5" x2="598.5" y2="262" xlink:href="#cf06029e-a620-46ae-8a5a-e28a71109481"/><linearGradient id="2f11c360-24e1-4900-b40c-5c209eaa65b6" y1="616.5" y2="460" xlink:href="#cf06029e-a620-46ae-8a5a-e28a71109481"/><linearGradient id="a08a9646-6964-4d51-a19c-612d0b797ffc" x1="395.5" x2="395.5" y1="616.5" y2="460" xlink:href="#cf06029e-a620-46ae-8a5a-e28a71109481"/><linearGradient id="4d2cc3a6-d454-4a71-a7fe-6c89e03b8d14" x1="598.5" x2="598.5" y1="616.5" y2="460" xlink:href="#cf06029e-a620-46ae-8a5a-e28a71109481"/></defs><title>portfolio</title><rect width="796" height="684" fill="url(#4825a168-f1ac-4091-8125-48717fd16bcb)"/><rect width="776.76" height="662.68" x="9.62" y="10.23" fill="#fff"/><rect width="254" height="20.81" x="118.5" y="81.85" fill="#bdbdbd"/><rect width="555" height="20.81" x="118.5" y="123.47" fill="#e0e0e0"/><rect width="555" height="20.81" x="118.5" y="165.08" fill="#64ffda"/><rect width="160" height="158.5" x="113" y="262" fill="url(#cf06029e-a620-46ae-8a5a-e28a71109481)"/><rect width="159" height="158.5" x="316" y="262" fill="url(#f75d8251-2390-4c7d-bebb-e5abb3a9a322)"/><rect width="159" height="158.5" x="519" y="262" fill="url(#86b5c316-e7be-414e-8e69-87fdc1a5b05b)"/><rect width="160" height="156.5" x="113" y="460" fill="url(#2f11c360-24e1-4900-b40c-5c209eaa65b6)"/><rect width="159" height="156.5" x="316" y="460" fill="url(#a08a9646-6964-4d51-a19c-612d0b797ffc)"/><rect width="159" height="156.5" x="519" y="460" fill="url(#4d2cc3a6-d454-4a71-a7fe-6c89e03b8d14)"/><rect width="149" height="149" x="118.5" y="265.5" fill="#6c63ff"/><rect width="149" height="149" x="321.5" y="265.5" fill="#6c63ff"/><rect width="149" height="149" x="524.5" y="265.5" fill="#6c63ff"/><rect width="149" height="149" x="118.5" y="461.5" fill="#6c63ff"/><rect width="149" height="149" x="321.5" y="461.5" fill="#6c63ff"/><rect width="149" height="149" x="524.5" y="461.5" fill="#6c63ff"/></svg>