<svg xmlns="http://www.w3.org/2000/svg" id="f4673761-b724-4a95-a095-d2125482816e" width="970" height="796" data-name="Layer 1" viewBox="0 0 970 796"><title>hologram</title><circle cx="917" cy="200" r="53" fill="#ccc" opacity=".3"/><circle cx="917" cy="200" r="30" fill="#6c63ff"/><circle cx="882" cy="53" r="53" fill="#ccc" opacity=".3"/><circle cx="882" cy="53" r="30" fill="#6c63ff"/><circle cx="53" cy="253" r="53" fill="#ccc" opacity=".3"/><circle cx="53" cy="253" r="30" fill="#6c63ff"/><circle cx="100" cy="665" r="53" fill="#ccc" opacity=".3"/><circle cx="100" cy="665" r="30" fill="#6c63ff"/><circle cx="172" cy="100" r="53" fill="#ccc" opacity=".3"/><circle cx="172" cy="100" r="30" fill="#6c63ff"/><path fill="#3f3d56" d="M983,483c0,178.34-127.90991,326.81-297,358.67-.65991.13-1.33008.25-2,.37q-15.765,2.895-32,4.39c-.66992.07-1.33008.13-2,.18q-15.81006,1.38-32,1.39c-.66992,0-1.33008,0-2-.01q-16.17-.075-32-1.56c-.66992-.05-1.33008-.12-2-.19q-16.21509-1.575-32-4.57c-.66992-.12-1.34009-.25-2-.38C379.8999,808.64,253,660.64,253,483c0-201.58,163.41992-365,365-365S983,281.42,983,483Z" transform="translate(-115 -52)"/><rect width="2" height="296.5" x="570" y="274.5" fill="#6c63ff"/><rect width="2" height="87.472" x="570" y="147.402" fill="#6c63ff"/><rect width="2" height="432.725" x="433" y="138.275" fill="#6c63ff"/><rect width="2" height="97.457" x="467" y="100" fill="#6c63ff"/><rect width="2" height="296.638" x="467" y="244" fill="#6c63ff"/><path fill="#6c63ff" d="M584,638.75V846.43c-.66992-.05-1.33008-.12-2-.19V638.75Z" transform="translate(-115 -52)"/><rect width="2" height="275.347" x="501" y="68" fill="#6c63ff"/><path fill="#6c63ff" d="M618,433.52V848c-.66992,0-1.33008,0-2-.01V433.52Z" transform="translate(-115 -52)"/><rect width="2" height="382" x="535" y="100" fill="#6c63ff"/><rect width="2" height="214.173" x="535" y="523" fill="#6c63ff"/><path fill="#6c63ff" d="M652,834.53v11.9c-.66992.07-1.33008.13-2,.18V834.53Z" transform="translate(-115 -52)"/><path fill="#6c63ff" d="M686,675V841.67c-.65991.13-1.33008.25-2,.37V675Z" transform="translate(-115 -52)"/><path fill="#6c63ff" d="M550,675V841.67c-.66992-.12-1.34009-.25-2-.38V675Z" transform="translate(-115 -52)"/><rect width="2" height="62.41" x="399" y="177" fill="#6c63ff"/><rect width="2" height="284.725" x="399" y="286.275" fill="#6c63ff"/><rect width="2" height="371" x="365" y="200" fill="#6c63ff"/><rect width="2" height="120.905" x="331" y="230" fill="#6c63ff"/><rect width="2" height="180.032" x="331" y="390.968" fill="#6c63ff"/><rect width="2" height="201.536" x="297" y="262" fill="#6c63ff"/><rect width="2" height="70" x="297" y="501" fill="#6c63ff"/><rect width="2" height="67.599" x="263" y="292" fill="#6c63ff"/><rect width="2" height="167.181" x="263" y="403.819" fill="#6c63ff"/><rect width="2" height="263" x="229" y="308" fill="#6c63ff"/><rect width="2" height="86.937" x="195" y="380" fill="#6c63ff"/><rect width="2" height="64.378" x="195" y="506.622" fill="#6c63ff"/><rect width="1.037" height="377" x="590.375" y="177" fill="#6c63ff"/><rect width="2" height="59.441" x="637" y="200" fill="#6c63ff"/><rect width="2" height="271.874" x="637" y="299.126" fill="#6c63ff"/><rect width="2" height="35" x="671" y="257" fill="#6c63ff"/><rect width="2" height="173.858" x="671" y="331.252" fill="#6c63ff"/><rect width="2" height="30.362" x="671" y="540.638" fill="#6c63ff"/><rect width="2" height="309" x="705" y="262" fill="#6c63ff"/><rect width="2" height="98.968" x="739" y="292" fill="#6c63ff"/><rect width="2" height="142.614" x="739" y="428.386" fill="#6c63ff"/><rect width="2" height="263" x="773" y="308" fill="#6c63ff"/><path fill="#6c63ff" d="M549,676a10,10,0,1,1,10-10A10.01177,10.01177,0,0,1,549,676Zm0-18a8,8,0,1,0,8,8A8.00917,8.00917,0,0,0,549,658Z" transform="translate(-115 -52)"/><path fill="#6c63ff" d="M583,624a10,10,0,1,1,10-10A10.01177,10.01177,0,0,1,583,624Zm0-18a8,8,0,1,0,8,8A8.00917,8.00917,0,0,0,583,606Z" transform="translate(-115 -52)"/><path fill="#6c63ff" d="M686,676a10,10,0,1,1,10-10A10.01177,10.01177,0,0,1,686,676Zm0-18a8,8,0,1,0,8,8A8.00917,8.00917,0,0,0,686,658Z" transform="translate(-115 -52)"/><path fill="#6c63ff" d="M651,801a10,10,0,1,0,10,10A10.01648,10.01648,0,0,0,651,801Zm0,18a8,8,0,1,1,8-8A8.0107,8.0107,0,0,1,651,819Z" transform="translate(-115 -52)"/><path fill="#6c63ff" d="M651,563a10,10,0,1,1,10-10A10.01177,10.01177,0,0,1,651,563Zm0-18a8,8,0,1,0,8,8A8.00917,8.00917,0,0,0,651,545Z" transform="translate(-115 -52)"/><path fill="#6c63ff" d="M617,424a10,10,0,1,1,10-10A10.01146,10.01146,0,0,1,617,424Z" transform="translate(-115 -52)"/><path fill="#6c63ff" d="M685,315a10,10,0,1,1,10-10A10.01146,10.01146,0,0,1,685,315Zm0-18a8,8,0,1,0,8,8A8.00917,8.00917,0,0,0,685,297Z" transform="translate(-115 -52)"/><path fill="#6c63ff" d="M447,433a10,10,0,1,1,10-10A10.01146,10.01146,0,0,1,447,433Zm0-18a8,8,0,1,0,8,8A8.00917,8.00917,0,0,0,447,415Z" transform="translate(-115 -52)"/><path fill="#6c63ff" d="M379,442a10,10,0,1,1,10-10A10.01146,10.01146,0,0,1,379,442Zm0-18a8,8,0,1,0,8,8A8.00917,8.00917,0,0,0,379,424Z" transform="translate(-115 -52)"/><path fill="#6c63ff" d="M413,544a10,10,0,1,1,10-10A10.01146,10.01146,0,0,1,413,544Z" transform="translate(-115 -52)"/><path fill="#6c63ff" d="M686,200a10,10,0,1,1,10-10A10.01146,10.01146,0,0,1,686,200Zm0-18a8,8,0,1,0,8,8A8.00917,8.00917,0,0,0,686,182Z" transform="translate(-115 -52)"/><path fill="#6c63ff" d="M515,324a10,10,0,1,1,10-10A10.01146,10.01146,0,0,1,515,324Zm0-18a8,8,0,1,0,8,8A8.00917,8.00917,0,0,0,515,306Z" transform="translate(-115 -52)"/><path fill="#6c63ff" d="M481,253a10,10,0,1,1,10-10A10.01146,10.01146,0,0,1,481,253Zm0-18a8,8,0,1,0,8,8A8.00917,8.00917,0,0,0,481,235Z" transform="translate(-115 -52)"/><path fill="#6c63ff" d="M311,549a10,10,0,1,1,10-10A10.01177,10.01177,0,0,1,311,549Zm0-18a8,8,0,1,0,8,8A8.00917,8.00917,0,0,0,311,531Z" transform="translate(-115 -52)"/><rect width="2" height="86.937" x="804" y="380" fill="#6c63ff"/><rect width="2" height="64.378" x="804" y="506.622" fill="#6c63ff"/><path fill="#6c63ff" d="M920,549a10,10,0,1,1,10-10A10.01177,10.01177,0,0,1,920,549Zm0-18a8,8,0,1,0,8,8A8.00917,8.00917,0,0,0,920,531Z" transform="translate(-115 -52)"/><path fill="#6c63ff" d="M855,470a10,10,0,1,1,10-10A10.01146,10.01146,0,0,1,855,470Zm0-18a8,8,0,1,0,8,8A8.00917,8.00917,0,0,0,855,452Z" transform="translate(-115 -52)"/><path fill="#6c63ff" d="M787,585a10,10,0,1,1,10-10A10.01177,10.01177,0,0,1,787,585Zm0-18a8,8,0,1,0,8,8A8.00917,8.00917,0,0,0,787,567Z" transform="translate(-115 -52)"/><path fill="#6c63ff" d="M583,283a10,10,0,1,1,10-10A10.01146,10.01146,0,0,1,583,283Z" transform="translate(-115 -52)"/><path fill="#6c63ff" d="M787,374a10,10,0,1,1,10-10A10.01146,10.01146,0,0,1,787,374Zm0-18a8,8,0,1,0,8,8A8.00917,8.00917,0,0,0,787,356Z" transform="translate(-115 -52)"/><path fill="#6c63ff" d="M855,345a10,10,0,1,1,10-10A10.01146,10.01146,0,0,1,855,345Z" transform="translate(-115 -52)"/><path fill="#6c63ff" d="M753,340a10,10,0,1,1,10-10A10.01146,10.01146,0,0,1,753,340Z" transform="translate(-115 -52)"/><polygon fill="#2f2e41" points="918 288.017 738.983 285 739.017 283 916 285.983 916 200 918 200 918 288.017"/><polygon fill="#2f2e41" points="638.923 278.386 637.077 277.614 731.334 52 882 52 882 54 732.666 54 638.923 278.386"/><polygon fill="#2f2e41" points="503 363 52 363 52 254 54 254 54 361 503 361 503 363"/><polygon fill="#2f2e41" points="468 222 169 222 169 100 171 100 171 220 468 220 468 222"/><polygon fill="#2f2e41" points="299 666 100 666 100 664 297 664 297 481 299 481 299 666"/></svg>