<svg version="1.1" xmlns="http://www.w3.org/2000/svg" xmlns:xlink="http://www.w3.org/1999/xlink" viewBox="0 0 252 252"><g fill="none" fill-rule="nonzero" stroke="none" stroke-width="1" stroke-linecap="butt" stroke-linejoin="miter" stroke-miterlimit="10" stroke-dasharray="" stroke-dashoffset="0" font-family="none" font-weight="none" font-size="none" text-anchor="none" style="mix-blend-mode: normal"><path d="M0,252v-252h252v252z" fill="none"></path><g><g id="surface1"><path d="M210,215.25h-168c-11.60742,0 -21,-9.39258 -21,-21v-136.5c0,-11.60742 9.39258,-21 21,-21h168c11.60742,0 21,9.39258 21,21v136.5c0,11.60742 -9.39258,21 -21,21" fill="#ecf0f1"></path><path d="M168,84c0,8.69531 7.05469,15.75 15.75,15.75c8.69531,0 15.75,-7.05469 15.75,-15.75c0,-8.69531 -7.05469,-15.75 -15.75,-15.75c-8.69531,0 -15.75,7.05469 -15.75,15.75" fill="#bdc3c7"></path><path d="M105,84l-57.75,84h115.5z" fill="#bdc3c7"></path><path d="M162.75,115.5l-42,52.5h84z" fill="#95a5a6"></path></g></g></g></svg>
